<mxfile host="app.diagrams.net" agent="Mozilla/5.0 (Macintosh; Intel Mac OS X 10_15_7) AppleWebKit/537.36 (KHTML, like Gecko) Chrome/128.0.0.0 Safari/537.36 OPR/114.0.0.0" modified="2025-02-14T02:44:48.794Z" version="24.4.8" etag="aAPgvloMKaiL2DJdKgtZ" type="github">
  <diagram name="Page-1" id="9361dd3d-8414-5efd-6122-117bd74ce7a7">
    <mxGraphModel dx="961" dy="951" grid="1" gridSize="10" guides="1" tooltips="1" connect="1" arrows="1" fold="1" page="0" pageScale="1.5" pageWidth="826" pageHeight="1169" background="none" math="0" shadow="0">
      <root>
        <mxCell id="0" />
        <mxCell id="1" parent="0" />
        <mxCell id="69" value="" style="fillColor=#DEE8FF;strokeColor=none" parent="1" vertex="1">
          <mxGeometry x="30" y="-10" width="1570" height="800" as="geometry" />
        </mxCell>
        <mxCell id="2" value="" style="fillColor=#CC4125;strokeColor=#660000" parent="1" vertex="1">
          <mxGeometry x="200" y="150" width="10" height="170" as="geometry" />
        </mxCell>
        <mxCell id="3" value="main()" style="edgeStyle=none;verticalLabelPosition=top;verticalAlign=bottom;labelPosition=left;align=right" parent="1" edge="1">
          <mxGeometry x="110" y="49.5" width="100" height="100" as="geometry">
            <mxPoint x="110" y="149.5" as="sourcePoint" />
            <mxPoint x="200" y="149.5" as="targetPoint" />
          </mxGeometry>
        </mxCell>
        <mxCell id="4" value="App" style="shadow=1;fillColor=#A2C4C9;strokeColor=none" parent="1" vertex="1">
          <mxGeometry x="152.5" y="60" width="105" height="50" as="geometry" />
        </mxCell>
        <mxCell id="6" value="" style="fillColor=#CC4125;strokeColor=#660000" parent="1" vertex="1">
          <mxGeometry x="342.5" y="180" width="10" height="30" as="geometry" />
        </mxCell>
        <mxCell id="7" value="Mensaje" style="shadow=1;fillColor=#A2C4C9;strokeColor=none" parent="1" vertex="1">
          <mxGeometry x="295" y="60" width="105" height="50" as="geometry" />
        </mxCell>
        <mxCell id="8" value="" style="edgeStyle=none;endArrow=none;dashed=1" parent="1" source="7" target="6" edge="1">
          <mxGeometry x="272.3350694444445" y="165" width="100" height="100" as="geometry">
            <mxPoint x="347.2588734567901" y="110" as="sourcePoint" />
            <mxPoint x="347.5761959876544" y="165" as="targetPoint" />
          </mxGeometry>
        </mxCell>
        <mxCell id="9" value="limpiarConsola()" style="edgeStyle=none;verticalLabelPosition=top;verticalAlign=bottom" parent="1" edge="1">
          <mxGeometry width="100" height="100" as="geometry">
            <mxPoint x="210" y="179.5" as="sourcePoint" />
            <mxPoint x="340" y="179.5" as="targetPoint" />
            <mxPoint as="offset" />
          </mxGeometry>
        </mxCell>
        <mxCell id="15" value="Operacion" style="shadow=1;fillColor=#A2C4C9;strokeColor=none" parent="1" vertex="1">
          <mxGeometry x="462.2839506172839" y="59.99999999999997" width="105" height="50" as="geometry" />
        </mxCell>
        <mxCell id="17" value="" style="fillColor=#CC4125;strokeColor=#660000" parent="1" vertex="1">
          <mxGeometry x="509.78" y="220" width="10" height="20" as="geometry" />
        </mxCell>
        <mxCell id="21" value="" style="fillColor=#CC4125;strokeColor=#660000" parent="1" vertex="1">
          <mxGeometry x="670" y="190" width="10" height="90" as="geometry" />
        </mxCell>
        <mxCell id="22" value="Output" style="shadow=1;fillColor=#A2C4C9;strokeColor=none" parent="1" vertex="1">
          <mxGeometry x="622.5" y="60" width="105" height="50" as="geometry" />
        </mxCell>
        <mxCell id="23" value="" style="edgeStyle=none;endArrow=none;dashed=1;fontStyle=1" parent="1" source="22" target="21" edge="1">
          <mxGeometry x="614.4878472222224" y="174.99999999999997" width="100" height="100" as="geometry">
            <mxPoint x="674.6527777777778" y="110" as="sourcePoint" />
            <mxPoint x="674.6527777777778" y="260" as="targetPoint" />
          </mxGeometry>
        </mxCell>
        <mxCell id="24" value="Scanner" style="shadow=1;fillColor=#A2C4C9;strokeColor=none" parent="1" vertex="1">
          <mxGeometry x="750" y="60" width="105" height="50" as="geometry" />
        </mxCell>
        <mxCell id="25" value="" style="edgeStyle=none;endArrow=none;dashed=1" parent="1" source="24" target="26" edge="1">
          <mxGeometry x="727.3350694444446" y="165" width="100" height="100" as="geometry">
            <mxPoint x="802.2588734567901" y="110" as="sourcePoint" />
            <mxPoint x="802.5761959876544" y="165" as="targetPoint" />
          </mxGeometry>
        </mxCell>
        <mxCell id="26" value="" style="fillColor=#CC4125;strokeColor=#660000" parent="1" vertex="1">
          <mxGeometry x="797.4999999999999" y="288.3942901234568" width="10" height="40" as="geometry" />
        </mxCell>
        <mxCell id="33" value="" style="edgeStyle=elbowEdgeStyle;elbow=horizontal;endArrow=none;dashed=1" parent="1" source="4" target="2" edge="1">
          <mxGeometry x="230.00000000000003" y="310" width="100" height="100" as="geometry">
            <mxPoint x="230.00000000000003" y="410" as="sourcePoint" />
            <mxPoint x="330" y="310" as="targetPoint" />
          </mxGeometry>
        </mxCell>
        <mxCell id="38" value="" style="edgeStyle=elbowEdgeStyle;elbow=horizontal;endArrow=none;dashed=1" parent="1" edge="1">
          <mxGeometry x="932.2588734567901" y="240" width="100" height="100" as="geometry">
            <mxPoint x="802.2588734567901" y="329.3942901234568" as="sourcePoint" />
            <mxPoint x="802.2588734567901" y="370" as="targetPoint" />
            <Array as="points">
              <mxPoint x="802.2588734567901" y="350" />
            </Array>
          </mxGeometry>
        </mxCell>
        <mxCell id="44" value="" style="edgeStyle=none;dashed=1;endArrow=none" parent="1" source="2" edge="1">
          <mxGeometry x="50" y="300" width="100" height="100" as="geometry">
            <mxPoint x="50" y="400" as="sourcePoint" />
            <mxPoint x="205" y="360" as="targetPoint" />
          </mxGeometry>
        </mxCell>
        <mxCell id="52" value="" style="edgeStyle=none;endArrow=none;dashed=1" parent="1" source="48SaaVwv8HlT3uRONbZA-104" edge="1">
          <mxGeometry x="376.5711805555559" y="339.6971450617284" width="100" height="100" as="geometry">
            <mxPoint x="451.7361111111112" y="284.6971450617284" as="sourcePoint" />
            <mxPoint x="347.5" y="464.16666666666674" as="targetPoint" />
          </mxGeometry>
        </mxCell>
        <mxCell id="56" value="" style="edgeStyle=none;endArrow=none;dashed=1" parent="1" target="57" edge="1">
          <mxGeometry x="1204.0711805555559" y="380.08680555555554" width="100" height="100" as="geometry">
            <mxPoint x="1142.5" y="512.0833333333337" as="sourcePoint" />
            <mxPoint x="1350" y="445.08680555555554" as="targetPoint" />
          </mxGeometry>
        </mxCell>
        <mxCell id="71" value="Calculadora" style="rounded=1;fontStyle=1;fillColor=#FFD966;strokeColor=none" parent="1" vertex="1">
          <mxGeometry x="50" y="20" width="150" height="30" as="geometry" />
        </mxCell>
        <mxCell id="48SaaVwv8HlT3uRONbZA-89" value="" style="edgeStyle=none;endArrow=none;dashed=1;fontStyle=1;exitX=0.5;exitY=1;exitDx=0;exitDy=0;entryX=0.5;entryY=0.043;entryDx=0;entryDy=0;entryPerimeter=0;" edge="1" parent="1" source="15" target="17">
          <mxGeometry x="614.4878472222224" y="174.99999999999997" width="100" height="100" as="geometry">
            <mxPoint x="514.28" y="130" as="sourcePoint" />
            <mxPoint x="514.28" y="229.5" as="targetPoint" />
          </mxGeometry>
        </mxCell>
        <mxCell id="48SaaVwv8HlT3uRONbZA-93" value="menu()" style="edgeStyle=none;verticalLabelPosition=top;verticalAlign=bottom;entryX=-0.091;entryY=0.043;entryDx=0;entryDy=0;entryPerimeter=0;" edge="1" parent="1" target="21">
          <mxGeometry width="100" height="100" as="geometry">
            <mxPoint x="352.5" y="194.55" as="sourcePoint" />
            <mxPoint x="482.5" y="194.55" as="targetPoint" />
            <mxPoint as="offset" />
          </mxGeometry>
        </mxCell>
        <mxCell id="48SaaVwv8HlT3uRONbZA-100" value="new Suma()" style="edgeStyle=none;verticalLabelPosition=top;verticalAlign=bottom;entryX=0;entryY=0;entryDx=0;entryDy=0;exitX=1.2;exitY=0.435;exitDx=0;exitDy=0;exitPerimeter=0;movable=0;resizable=1;rotatable=1;deletable=1;editable=1;locked=0;connectable=1;" edge="1" parent="1" source="2" target="17">
          <mxGeometry width="100" height="100" as="geometry">
            <mxPoint x="240" y="250" as="sourcePoint" />
            <mxPoint x="556.5" y="252.45" as="targetPoint" />
            <mxPoint as="offset" />
          </mxGeometry>
        </mxCell>
        <mxCell id="48SaaVwv8HlT3uRONbZA-101" value="" style="fillColor=#CCD5EB" vertex="1" parent="1">
          <mxGeometry x="500" y="-130" width="930" height="50" as="geometry" />
        </mxCell>
        <mxCell id="48SaaVwv8HlT3uRONbZA-102" value="opt" style="rounded=1;fontStyle=1;fillColor=#FFD966;strokeColor=none" vertex="1" parent="1">
          <mxGeometry x="374.78" y="-120" width="87.5" height="30" as="geometry" />
        </mxCell>
        <mxCell id="48SaaVwv8HlT3uRONbZA-105" value="" style="edgeStyle=none;endArrow=none;dashed=1" edge="1" parent="1" source="6" target="48SaaVwv8HlT3uRONbZA-104">
          <mxGeometry x="376.5711805555559" y="339.6971450617284" width="100" height="100" as="geometry">
            <mxPoint x="347" y="210" as="sourcePoint" />
            <mxPoint x="347" y="464" as="targetPoint" />
          </mxGeometry>
        </mxCell>
        <mxCell id="48SaaVwv8HlT3uRONbZA-104" value="" style="fillColor=#CC4125;strokeColor=#660000" vertex="1" parent="1">
          <mxGeometry x="342.5" y="250" width="10" height="30" as="geometry" />
        </mxCell>
        <mxCell id="48SaaVwv8HlT3uRONbZA-126" value="primerNumero()" style="edgeStyle=none;verticalLabelPosition=top;verticalAlign=bottom;exitX=1;exitY=0.25;exitDx=0;exitDy=0;movable=1;resizable=1;rotatable=1;deletable=1;editable=1;locked=0;connectable=1;entryX=0;entryY=0.75;entryDx=0;entryDy=0;" edge="1" parent="1" source="48SaaVwv8HlT3uRONbZA-104" target="21">
          <mxGeometry width="100" height="100" as="geometry">
            <mxPoint x="567.28" y="237" as="sourcePoint" />
            <mxPoint x="660" y="250" as="targetPoint" />
            <mxPoint as="offset" />
          </mxGeometry>
        </mxCell>
        <mxCell id="48SaaVwv8HlT3uRONbZA-127" value="nextInt()" style="edgeStyle=none;verticalLabelPosition=top;verticalAlign=bottom;entryX=1.482;entryY=0.929;entryDx=0;entryDy=0;entryPerimeter=0;exitX=0;exitY=0.5;exitDx=0;exitDy=0;dashed=1;" edge="1" parent="1" source="26" target="2">
          <mxGeometry width="100" height="100" as="geometry">
            <mxPoint x="363.5" y="400.55" as="sourcePoint" />
            <mxPoint x="680" y="400" as="targetPoint" />
            <mxPoint as="offset" />
          </mxGeometry>
        </mxCell>
        <mxCell id="48SaaVwv8HlT3uRONbZA-128" value="" style="fillColor=#CC4125;strokeColor=#660000" vertex="1" parent="1">
          <mxGeometry x="797.4999999999999" y="366.7842901234568" width="10" height="40" as="geometry" />
        </mxCell>
        <mxCell id="48SaaVwv8HlT3uRONbZA-129" value="" style="fillColor=#CC4125;strokeColor=#660000" vertex="1" parent="1">
          <mxGeometry x="342.5" y="328.39" width="10" height="30" as="geometry" />
        </mxCell>
        <mxCell id="48SaaVwv8HlT3uRONbZA-130" value="segundoNumero()" style="edgeStyle=none;verticalLabelPosition=top;verticalAlign=bottom;exitX=1;exitY=0.25;exitDx=0;exitDy=0;movable=1;resizable=1;rotatable=1;deletable=1;editable=1;locked=0;connectable=1;entryX=0;entryY=0.75;entryDx=0;entryDy=0;" edge="1" parent="1" source="48SaaVwv8HlT3uRONbZA-129">
          <mxGeometry width="100" height="100" as="geometry">
            <mxPoint x="567.28" y="315.39" as="sourcePoint" />
            <mxPoint x="670" y="336.39" as="targetPoint" />
            <mxPoint as="offset" />
          </mxGeometry>
        </mxCell>
        <mxCell id="48SaaVwv8HlT3uRONbZA-131" value="nextInt()" style="edgeStyle=none;verticalLabelPosition=top;verticalAlign=bottom;entryX=1.482;entryY=0.929;entryDx=0;entryDy=0;entryPerimeter=0;exitX=0;exitY=0.5;exitDx=0;exitDy=0;dashed=1;" edge="1" parent="1" source="48SaaVwv8HlT3uRONbZA-128">
          <mxGeometry width="100" height="100" as="geometry">
            <mxPoint x="363.5" y="478.94" as="sourcePoint" />
            <mxPoint x="215" y="386.39" as="targetPoint" />
            <mxPoint as="offset" />
          </mxGeometry>
        </mxCell>
        <mxCell id="48SaaVwv8HlT3uRONbZA-132" value="" style="fillColor=#CC4125;strokeColor=#660000" vertex="1" parent="1">
          <mxGeometry x="670" y="316.78" width="10" height="33.22" as="geometry" />
        </mxCell>
        <mxCell id="48SaaVwv8HlT3uRONbZA-134" value="" style="edgeStyle=none;endArrow=none;dashed=1;fontStyle=1;exitX=0.5;exitY=1;exitDx=0;exitDy=0;entryX=0.5;entryY=0;entryDx=0;entryDy=0;" edge="1" parent="1" source="21" target="48SaaVwv8HlT3uRONbZA-132">
          <mxGeometry x="614.4878472222224" y="174.99999999999997" width="100" height="100" as="geometry">
            <mxPoint x="685" y="120" as="sourcePoint" />
            <mxPoint x="685" y="200" as="targetPoint" />
          </mxGeometry>
        </mxCell>
        <mxCell id="48SaaVwv8HlT3uRONbZA-135" value="" style="edgeStyle=none;endArrow=none;dashed=1;fontStyle=1;exitX=0.5;exitY=1;exitDx=0;exitDy=0;entryX=0.5;entryY=0.043;entryDx=0;entryDy=0;entryPerimeter=0;" edge="1" parent="1">
          <mxGeometry x="614.4878472222224" y="174.99999999999997" width="100" height="100" as="geometry">
            <mxPoint x="514.26" y="247.39" as="sourcePoint" />
            <mxPoint x="514.26" y="358.39" as="targetPoint" />
          </mxGeometry>
        </mxCell>
      </root>
    </mxGraphModel>
  </diagram>
</mxfile>
